<svg width="159" height="53" viewBox="0 0 159 53" fill="none" xmlns="http://www.w3.org/2000/svg">
<path fill-rule="evenodd" clip-rule="evenodd" d="M0.291506 26.4982C0.103528 26.9619 0 27.4688 0 28L0 28.0046L0 49V53H4H20H25H41H45V49V28.0052V28C45 27.4692 44.8966 26.9626 44.7089 26.4992C44.5303 26.0573 44.2693 25.6406 43.9257 25.2723C43.9074 25.2526 43.8888 25.2332 43.8701 25.2139L31.7318 12.6835L31.6863 12.6365L31.6393 12.5911L28.2544 9.31812L30.7805 6.87558C32.3686 5.33996 32.4112 2.80766 30.8756 1.21952C29.34 -0.368612 26.8077 -0.411188 25.2195 1.12443L22.5 3.75401L19.7805 1.12443C18.1923 -0.411188 15.66 -0.368612 14.1244 1.21952C12.5888 2.80766 12.6314 5.33996 14.2195 6.87558L16.7456 9.31812L13.3607 12.5911L13.3137 12.6365L13.2682 12.6835L1.13013 25.2136C1.11075 25.2336 1.09157 25.2538 1.07261 25.2741C0.730059 25.6417 0.469815 26.0574 0.291506 26.4982ZM22.5 14.8822L18.9687 18.2967L8 29.6197V45H20H25H37V29.6197L26.0313 18.2967L22.5 14.8822ZM57.1047 14.325V39H71.6297V33.75H63.9647V14.325H57.1047ZM93.7571 29.165C93.7571 22.935 89.3121 19.12 83.4671 19.12C77.6221 19.12 73.1771 22.935 73.1771 29.165C73.1771 35.43 77.5871 39.245 83.4321 39.245C89.2771 39.245 93.7571 35.43 93.7571 29.165ZM80.1771 29.165C80.1771 26.365 81.7171 25.07 83.4671 25.07C85.2171 25.07 86.7921 26.365 86.7921 29.165C86.7921 32 85.1821 33.295 83.4321 33.295C81.6471 33.295 80.1771 32 80.1771 29.165ZM95.4281 29.165C95.4281 35.43 99.5231 39.245 105.368 39.245C110.338 39.245 113.978 36.34 114.958 31.475H107.678C107.293 32.7 106.523 33.4 105.228 33.4C103.548 33.4 102.428 32 102.428 29.165C102.428 26.365 103.548 24.965 105.228 24.965C106.523 24.965 107.293 25.7 107.678 26.89H114.958C113.978 21.955 110.338 19.12 105.368 19.12C99.5231 19.12 95.4281 22.935 95.4281 29.165ZM137.898 19.365H131.003V29.9C131.003 32.175 129.743 33.505 127.748 33.505C125.788 33.505 124.493 32.175 124.493 29.9V19.365H117.668V30.775C117.668 35.955 120.503 39.175 125.053 39.175C127.818 39.175 129.883 37.88 131.003 36.2V39H137.898V19.365ZM158.322 33.225C158.3 28.6037 154.271 27.7079 151.21 27.0276C149.334 26.6104 147.822 26.2743 147.822 25.21C147.822 24.475 148.417 24.02 149.537 24.02C151.007 24.02 151.882 24.755 152.092 25.98H158.287C157.832 22.095 155.032 19.12 149.677 19.12C144.357 19.12 141.522 21.955 141.522 25.385C141.522 29.8058 145.443 30.6344 148.477 31.2755C150.391 31.6799 151.952 32.0097 151.952 33.12C151.952 33.82 151.287 34.38 150.132 34.38C148.697 34.38 147.612 33.68 147.437 32.385H140.787C141.067 36.305 144.707 39.245 150.167 39.245C155.242 39.245 158.322 36.655 158.322 33.225Z" fill="#58A9A5"/>
</svg>
